<?xml version="1.0" standalone="no"?>
<!DOCTYPE svg PUBLIC "-//W3C//DTD SVG 20010904//EN"
 "http://www.w3.org/TR/2001/REC-SVG-20010904/DTD/svg10.dtd">
<svg version="1.0" xmlns="http://www.w3.org/2000/svg"
 width="720.000000pt" height="720.000000pt" viewBox="0 0 720.000000 720.000000"
 preserveAspectRatio="xMidYMid meet">
<metadata>
Created by potrace 1.11, written by Peter Selinger 2001-2013
</metadata>
<g transform="translate(0.000000,720.000000) scale(0.100000,-0.100000)"
fill="#000000" stroke="none">
<path d="M3517 7084 c-3 -3 -43 -8 -89 -10 -97 -4 -179 -11 -228 -18 -19 -3
-55 -8 -80 -11 -25 -2 -57 -7 -71 -10 -14 -3 -41 -7 -60 -9 -19 -3 -34 -5 -34
-6 0 -2 -19 -6 -60 -13 -16 -3 -37 -8 -45 -11 -8 -3 -26 -8 -40 -10 -14 -3
-52 -12 -85 -21 -33 -9 -67 -18 -75 -20 -27 -6 -264 -87 -295 -100 -16 -8 -59
-26 -95 -40 -87 -36 -312 -150 -378 -192 -29 -18 -55 -33 -58 -33 -7 0 -230
-153 -299 -206 -151 -116 -341 -292 -452 -420 -26 -31 -59 -68 -73 -84 -25
-28 -53 -62 -109 -135 -17 -22 -35 -45 -41 -52 -5 -7 -10 -16 -10 -22 0 -5 -4
-11 -8 -13 -9 -3 -112 -153 -112 -162 0 -2 -16 -28 -35 -58 -53 -79 -228 -431
-234 -470 -1 -5 -13 -34 -26 -65 -14 -32 -27 -64 -29 -73 -2 -8 -6 -22 -9 -30
-26 -71 -74 -228 -79 -265 -2 -11 -7 -26 -11 -32 -5 -7 -6 -13 -3 -13 3 0 2
-10 -3 -23 -5 -13 -12 -39 -15 -58 -3 -19 -12 -65 -20 -104 -12 -57 -15 -168
-15 -615 0 -598 -2 -571 69 -856 25 -97 105 -347 123 -379 6 -11 12 -26 13
-32 8 -45 189 -404 259 -513 30 -47 58 -92 62 -100 3 -8 9 -17 12 -20 3 -3 26
-34 51 -70 24 -36 50 -72 57 -80 7 -8 26 -33 43 -55 29 -36 68 -83 130 -155
123 -143 331 -333 514 -467 61 -45 116 -87 123 -93 7 -5 14 -10 17 -10 2 0 32
-18 65 -40 83 -55 362 -209 391 -215 3 -1 23 -9 45 -19 135 -60 372 -146 438
-160 12 -3 47 -12 77 -21 30 -9 66 -18 80 -21 14 -3 41 -9 60 -14 19 -5 49
-11 65 -14 17 -3 41 -8 55 -10 14 -3 41 -8 60 -10 19 -3 44 -7 55 -10 81 -15
180 -24 373 -31 84 -3 156 -6 160 -6 4 -1 9 -1 12 0 4 2 175 11 272 15 21 0
38 3 38 6 0 3 10 5 23 6 45 1 152 13 167 18 8 3 33 8 55 11 22 4 45 8 50 9 12
3 72 16 100 21 11 2 20 4 20 5 0 2 5 3 55 13 97 21 309 90 435 142 11 5 22 9
25 10 57 21 97 40 222 102 148 74 330 179 336 195 2 4 9 8 14 8 13 0 181 120
186 132 2 4 10 8 17 8 7 0 15 3 17 8 2 4 26 25 53 47 159 127 323 288 468 458
59 70 214 277 229 307 7 14 16 27 19 30 14 11 129 213 181 315 83 163 198 449
223 552 3 10 18 70 35 133 16 63 32 126 34 140 3 14 12 57 20 95 12 56 15 176
15 615 0 543 0 546 -24 660 -14 63 -27 124 -29 135 -15 65 -59 222 -66 230 -5
6 -9 13 -9 18 -3 31 -41 142 -77 224 -8 17 -14 33 -14 36 0 15 -122 267 -169
350 -12 20 -30 54 -42 75 -28 49 -182 281 -206 309 -41 49 -51 61 -59 75 -11
19 -96 119 -152 178 -82 86 -193 200 -196 200 -2 0 -21 16 -42 36 -72 67 -203
174 -213 174 -5 0 -11 4 -13 8 -6 14 -172 130 -288 200 -124 75 -314 173 -420
217 -36 14 -78 32 -95 40 -44 19 -194 67 -198 63 -2 -1 -11 3 -19 9 -19 16
-304 89 -428 109 -108 19 -124 21 -200 29 -30 3 -67 8 -82 10 -14 3 -75 7
-135 9 -60 3 -113 6 -119 7 -5 1 -12 0 -16 -1 -22 -6 -95 -5 -109 2 -9 4 -19
5 -22 2z"/>
</g>
</svg>
